<?xml version="1.0" encoding="UTF-8" standalone="no"?>
<svg
   data-slot="icon"
   aria-hidden="true"
   fill="none"
   stroke-width="1.5"
   stroke="currentColor"
   viewBox="0 0 24 24"
   version="1.1"
   id="svg1"
   sodipodi:docname="shop_icon.svg"
   inkscape:version="1.4 (86a8ad7, 2024-10-11)"
   inkscape:export-filename="shop_icon.png"
   inkscape:export-xdpi="512"
   inkscape:export-ydpi="512"
   xmlns:inkscape="http://www.inkscape.org/namespaces/inkscape"
   xmlns:sodipodi="http://sodipodi.sourceforge.net/DTD/sodipodi-0.dtd"
   xmlns="http://www.w3.org/2000/svg"
   xmlns:svg="http://www.w3.org/2000/svg">
  <defs
     id="defs1" />
  <sodipodi:namedview
     id="namedview1"
     pagecolor="#ffffff"
     bordercolor="#000000"
     borderopacity="0.25"
     inkscape:showpageshadow="2"
     inkscape:pageopacity="0.0"
     inkscape:pagecheckerboard="true"
     inkscape:deskcolor="#d1d1d1"
     inkscape:zoom="17.191534"
     inkscape:cx="22.423828"
     inkscape:cy="11.081036"
     inkscape:window-width="2560"
     inkscape:window-height="1369"
     inkscape:window-x="2552"
     inkscape:window-y="-8"
     inkscape:window-maximized="1"
     inkscape:current-layer="svg1" />
  <path
     d="m 13.356931,20.140901 v -6.784084 a 0.67840841,0.67840841 0 0 1 0.678409,-0.678409 h 2.713633 a 0.67840841,0.67840841 0 0 1 0.678409,0.678409 v 6.784084 m -4.070451,0 H 3.280305 m 10.076626,0 h 4.070451 m 0,0 h 3.292542 m -1.257317,0 V 9.6020524 M 4.5376219,20.140901 V 9.6020524 m 0,0 a 2.7145382,2.7145382 0 0 0 3.392042,-0.5562949 2.7073018,2.7073018 0 0 0 2.0352253,0.9190173 c 0.8104718,0 1.5377258,-0.355486 2.0352248,-0.9190173 a 2.7073018,2.7073018 0 0 0 2.035226,0.9190173 c 0.810472,0 1.537725,-0.355486 2.035225,-0.9181127 a 2.7145382,2.7145382 0 0 0 3.392042,0.5553903 m -14.9249851,0 A 2.7172518,2.7172518 0 0 1 3.9758997,5.3326021 L 5.0514032,4.2561941 A 1.3568168,1.3568168 0 0 1 6.0102204,3.8590991 H 17.989104 a 1.3568168,1.3568168 0 0 1 0.958817,0.3979996 l 1.076408,1.0755034 A 2.7136336,2.7136336 0 0 1 19.462607,9.6020524 M 7.2512555,17.427267 h 3.3920425 a 0.67840841,0.67840841 0 0 0 0.678408,-0.678408 V 13.356817 A 0.67840841,0.67840841 0 0 0 10.643298,12.678408 H 7.2512555 a 0.67840841,0.67840841 0 0 0 -0.6784084,0.678409 v 3.392042 c 0,0.374481 0.303927,0.678408 0.6784084,0.678408 z"
     stroke-linecap="round"
     stroke-linejoin="round"
     id="path1"
     style="fill:none;stroke:#ffffff;stroke-width:1.35682;stroke-opacity:1" />
</svg>
